<svg width="24" height="20" viewBox="0 0 24 20" fill="none" xmlns="http://www.w3.org/2000/svg">
<path d="M-1.66297e-05 19.6365L11.5568 0.000109673L23.1136 19.6365H-1.66297e-05ZM11.5568 17.4376C11.9943 17.4376 12.3665 17.2842 12.6733 16.9774C12.9858 16.6649 13.142 16.2899 13.142 15.8524C13.142 15.4149 12.9858 15.0427 12.6733 14.7359C12.3665 14.4234 11.9943 14.2672 11.5568 14.2672C11.1193 14.2672 10.7443 14.4234 10.4318 14.7359C10.125 15.0427 9.97157 15.4149 9.97157 15.8524C9.97157 16.2899 10.125 16.6649 10.4318 16.9774C10.7443 17.2842 11.1193 17.4376 11.5568 17.4376ZM10.517 12.341H12.5966L12.75 6.54557H10.3636L10.517 12.341Z" fill="#757575"/>
</svg>
